<?xml version="1.0" encoding="UTF-8"?><svg xmlns="http://www.w3.org/2000/svg" width="900" height="1200" viewBox="0 0 900 1200"><defs><linearGradient id="bg" x1="0" y1="0" x2="0" y2="1"><stop stop-color="#171318"/><stop offset="1" stop-color="#08070a"/></linearGradient><filter id="sepia"><feColorMatrix values="0.45 0.35 0.2 0 0.06 0.38 0.30 0.16 0 0.04 0.22 0.18 0.12 0 0.02 0 0 0 1 0"/></filter></defs><rect width="900" height="1200" fill="url(#bg)"/><text x="450" y="72" fill="#d8c7a9" font-family="Georgia,serif" font-size="34" text-anchor="middle" letter-spacing="5">АРХИВ РЕЙВЕНХОЛЛА</text><g transform="translate(70 130)"><rect x="-12" y="-12" width="364" height="454" rx="8" fill="#b9aa8d"/><rect width="340" height="410" fill="#242026"/><image href="../v1/adrian-formal.webp" x="0" y="0" width="340" height="410" preserveAspectRatio="xMidYMid slice" filter="url(#sepia)"/><rect y="350" width="340" height="60" fill="#09080b" opacity=".82"/><text x="170" y="389" fill="#e5d7bd" font-family="Georgia,serif" font-size="26" text-anchor="middle">1931</text></g><g transform="translate(470 130)"><rect x="-12" y="-12" width="364" height="454" rx="8" fill="#b9aa8d"/><rect width="340" height="410" fill="#242026"/><image href="../v1/adrian-formal.webp" x="0" y="0" width="340" height="410" preserveAspectRatio="xMidYMid slice" filter="url(#sepia)"/><rect y="350" width="340" height="60" fill="#09080b" opacity=".82"/><text x="170" y="389" fill="#e5d7bd" font-family="Georgia,serif" font-size="26" text-anchor="middle">1957</text></g><g transform="translate(70 620)"><rect x="-12" y="-12" width="364" height="454" rx="8" fill="#b9aa8d"/><rect width="340" height="410" fill="#242026"/><image href="../v1/adrian-formal.webp" x="0" y="0" width="340" height="410" preserveAspectRatio="xMidYMid slice" filter="url(#sepia)"/><rect y="350" width="340" height="60" fill="#09080b" opacity=".82"/><text x="170" y="389" fill="#e5d7bd" font-family="Georgia,serif" font-size="26" text-anchor="middle">1986</text></g><g transform="translate(470 620)"><rect x="-12" y="-12" width="364" height="454" rx="8" fill="#b9aa8d"/><rect width="340" height="410" fill="#242026"/><image href="../v1/adrian-formal.webp" x="0" y="0" width="340" height="410" preserveAspectRatio="xMidYMid slice" filter="url(#sepia)"/><rect y="350" width="340" height="60" fill="#09080b" opacity=".82"/><text x="170" y="389" fill="#e5d7bd" font-family="Georgia,serif" font-size="26" text-anchor="middle">2019</text></g><text x="450" y="1148" fill="#9a8c78" font-family="Georgia,serif" font-size="25" text-anchor="middle">Он не меняется. Меняются только даты.</text></svg>